<svg width="46" height="58" viewBox="0 0 46 58" fill="none" xmlns="http://www.w3.org/2000/svg">
<path d="M0.605011 57V0.999995H9.49501C12.9483 0.999995 15.4567 1.74666 17.02 3.24C18.6067 4.73333 19.4233 7.19499 19.47 10.625C19.4933 12.7483 19.505 14.615 19.505 16.225C19.505 17.835 19.4817 19.3867 19.435 20.88C19.3417 22.8867 18.945 24.4733 18.245 25.64C17.545 26.7833 16.46 27.6233 14.99 28.16V29.49C16.5067 30.0033 17.6267 30.8433 18.35 32.01C19.0733 33.1767 19.4583 34.7867 19.505 36.84C19.5517 38.73 19.575 40.48 19.575 42.09C19.575 43.7 19.5517 45.4617 19.505 47.375C19.3883 50.7817 18.5483 53.2433 16.985 54.76C15.445 56.2533 12.96 57 9.53001 57H0.605011ZM5.96001 52.17H9.53001C11.07 52.17 12.2133 51.7733 12.96 50.98C13.7067 50.1867 14.0917 48.9617 14.115 47.305C14.185 45.485 14.22 43.77 14.22 42.16C14.22 40.55 14.185 38.8467 14.115 37.05C14.0917 34.9267 13.695 33.4217 12.925 32.535C12.1783 31.625 10.965 31.17 9.28501 31.17H5.96001V52.17ZM5.96001 26.34H9.46001C11 26.34 12.1433 25.885 12.89 24.975C13.6367 24.065 14.0333 22.6533 14.08 20.74C14.15 18.92 14.185 17.1933 14.185 15.56C14.185 13.9267 14.15 12.2 14.08 10.38C14.0333 8.81666 13.6367 7.67333 12.89 6.94999C12.1433 6.20333 11.0117 5.83 9.49501 5.83H5.96001V26.34Z" fill="#32A853"/>
<path d="M35.635 57.525C32.1817 57.525 29.6967 56.755 28.18 55.215C26.6867 53.675 25.87 51.155 25.73 47.655C25.7067 46.3017 25.6833 45.0533 25.66 43.91C25.66 42.7433 25.6717 41.5883 25.695 40.445C25.7417 39.2783 25.7883 38.0183 25.835 36.665H30.98C30.8867 38.6717 30.8283 40.6783 30.805 42.685C30.805 44.6917 30.8633 46.64 30.98 48.53C31.05 50.0467 31.4467 51.1667 32.17 51.89C32.8933 52.6133 34.0367 52.975 35.6 52.975C37.14 52.975 38.2367 52.6133 38.89 51.89C39.5667 51.1667 39.9633 50.0467 40.08 48.53C40.15 47.27 40.1967 46.15 40.22 45.17C40.2433 44.1667 40.2317 43.14 40.185 42.09C40.1617 41.0167 40.1267 39.8033 40.08 38.45C40.01 36.7933 39.7533 35.405 39.31 34.285C38.8667 33.165 37.9917 32.43 36.685 32.08L32.765 31.065C30.8983 30.5983 29.4517 29.8983 28.425 28.965C27.4217 28.0317 26.71 26.8183 26.29 25.325C25.8933 23.8083 25.66 21.965 25.59 19.795C25.5667 18.3483 25.5667 16.785 25.59 15.105C25.6133 13.425 25.6367 11.8033 25.66 10.24C25.73 7.90666 26.0917 6.02833 26.745 4.60499C27.3983 3.15833 28.4483 2.10833 29.895 1.45499C31.3417 0.801657 33.2433 0.474991 35.6 0.474991C38.9367 0.474991 41.34 1.23332 42.81 2.74999C44.3033 4.26666 45.12 6.77499 45.26 10.275C45.3067 11.535 45.3183 13.0867 45.295 14.93C45.2717 16.75 45.2367 18.64 45.19 20.6H39.975C40.045 18.7567 40.0917 16.9017 40.115 15.035C40.1383 13.145 40.115 11.2783 40.045 9.43499C39.975 7.89499 39.5783 6.77499 38.855 6.07499C38.1317 5.35166 37.035 4.98999 35.565 4.98999C34.0017 4.98999 32.8817 5.35166 32.205 6.07499C31.5283 6.77499 31.1433 7.89499 31.05 9.43499C30.9333 11.1383 30.875 12.8533 30.875 14.58C30.8983 16.3067 30.9567 18.045 31.05 19.795C31.0967 21.7083 31.3417 23.1783 31.785 24.205C32.2517 25.2083 33.1733 25.885 34.55 26.235L38.19 27.11C40.1267 27.5533 41.6083 28.265 42.635 29.245C43.6617 30.2017 44.3733 31.45 44.77 32.99C45.19 34.5067 45.435 36.3267 45.505 38.45C45.5517 39.7567 45.575 40.8883 45.575 41.845C45.575 42.7783 45.5633 43.6883 45.54 44.575C45.5167 45.4617 45.4933 46.4883 45.47 47.655C45.33 51.155 44.5017 53.675 42.985 55.215C41.4917 56.755 39.0417 57.525 35.635 57.525Z" fill="#585858"/>
</svg>
