<?xml version="1.0" standalone="no"?>
<!DOCTYPE svg PUBLIC "-//W3C//DTD SVG 20010904//EN"
 "http://www.w3.org/TR/2001/REC-SVG-20010904/DTD/svg10.dtd">
<svg version="1.0" xmlns="http://www.w3.org/2000/svg"
 width="928.000000pt" height="928.000000pt" viewBox="0 0 928.000000 928.000000"
 preserveAspectRatio="xMidYMid meet">
<metadata>
Created by potrace 1.14, written by Peter Selinger 2001-2017
</metadata>
<g transform="translate(0.000000,928.000000) scale(0.100000,-0.100000)"
fill="#000000" stroke="none">
<path d="M6485 9202 c-1 -2 -36 -5 -76 -7 -151 -10 -259 -25 -389 -57 -98 -23
-248 -74 -267 -90 -7 -6 -13 -8 -13 -4 0 18 -204 -114 -265 -171 -55 -52 -145
-157 -145 -170 0 -6 -6 -15 -13 -22 -12 -9 -85 -151 -107 -206 -15 -38 -41
-112 -45 -131 -3 -11 -14 -55 -25 -99 -18 -73 -51 -248 -48 -263 0 -4 -1 -9
-2 -12 -12 -29 -36 -582 -31 -717 0 -7 0 -23 0 -35 0 -13 -1 -293 -1 -623 -2
-524 2 -696 17 -820 2 -16 6 -54 9 -82 3 -29 8 -67 10 -85 7 -52 35 -221 42
-248 3 -14 7 -35 9 -47 2 -11 6 -30 9 -41 4 -11 9 -30 11 -42 6 -33 66 -194
76 -205 5 -5 9 -17 9 -27 0 -10 5 -18 10 -18 6 0 10 -6 10 -13 0 -31 128 -208
209 -288 76 -76 241 -200 241 -181 0 4 4 3 8 -3 10 -14 191 -101 237 -115 6
-1 21 -7 35 -12 14 -5 34 -11 44 -14 10 -2 33 -8 51 -14 18 -6 41 -13 51 -15
10 -2 114 -29 229 -60 116 -31 221 -58 235 -61 14 -3 43 -10 65 -16 22 -7 50
-13 62 -14 12 -2 31 -8 42 -14 12 -6 21 -9 21 -6 0 10 138 -43 197 -74 63 -34
154 -113 188 -165 45 -68 104 -211 119 -290 2 -11 11 -50 20 -88 9 -37 15 -71
15 -75 -1 -4 -1 -9 1 -12 4 -12 21 -149 26 -210 12 -168 28 -746 27 -1040 0
-277 -12 -616 -27 -750 -33 -292 -147 -491 -329 -575 -40 -19 -84 -36 -98 -39
-118 -24 -159 -28 -264 -29 -102 -1 -161 3 -255 17 -8 1 -42 11 -75 21 -33 10
-62 19 -65 20 -3 0 -30 14 -60 29 -141 73 -257 260 -285 456 -3 25 -8 59 -11
75 -5 34 -10 108 -21 345 -15 309 -8 1207 11 1585 2 22 1 45 -1 50 -3 10 -808
14 -817 4 -3 -3 -7 -79 -10 -169 -3 -91 -8 -239 -11 -330 -17 -425 -3 -1383
21 -1510 5 -28 14 -97 15 -120 1 -8 5 -31 9 -50 5 -19 11 -48 14 -65 9 -57 17
-90 22 -105 3 -8 8 -26 11 -40 23 -122 159 -418 208 -452 5 -4 7 -8 3 -8 -27
0 167 -189 248 -242 109 -71 289 -147 404 -172 14 -3 45 -10 70 -16 25 -5 63
-12 85 -16 22 -3 65 -9 95 -14 185 -31 611 -28 796 4 16 3 47 8 69 11 118 18
273 66 395 123 137 64 304 196 369 292 13 19 30 40 36 45 14 12 104 175 121
220 7 17 22 55 33 85 23 60 77 253 86 310 3 19 7 46 10 60 8 43 22 160 30 243
12 124 24 627 24 1057 0 402 -9 718 -24 850 -3 25 -8 70 -11 100 -15 133 -19
163 -41 275 -8 44 -16 89 -18 100 -2 11 -13 54 -25 95 -11 41 -23 86 -26 99
-10 48 -76 199 -121 276 -70 121 -178 245 -278 320 -22 16 -42 32 -45 35 -40
45 -354 186 -480 216 -8 1 -53 13 -100 24 -107 27 -119 30 -150 36 -14 3 -47
11 -75 19 -27 7 -63 16 -80 19 -16 2 -55 12 -87 20 -31 8 -67 18 -80 21 -151
33 -212 52 -276 82 -134 62 -224 148 -283 269 -21 44 -39 88 -39 98 0 9 -4 25
-10 35 -9 18 -15 45 -26 111 -3 19 -7 42 -10 51 -3 9 -7 39 -10 65 -2 27 -7
60 -9 74 -4 23 -12 154 -20 325 -33 665 -23 1499 20 1755 3 19 8 47 10 62 6
40 56 181 70 198 7 8 16 25 20 38 12 40 127 148 194 181 103 52 274 87 411 83
175 -5 280 -26 386 -78 72 -34 167 -116 210 -179 26 -39 71 -143 78 -177 2
-15 8 -32 11 -38 4 -6 9 -30 11 -53 3 -23 7 -53 10 -67 24 -112 24 -1663 0
-1852 -7 -55 -19 -53 424 -53 l410 0 1 55 c4 255 8 393 13 397 3 3 1 14 -5 24
-5 11 -6 19 -2 19 10 0 9 52 -1 68 -3 6 -3 13 2 16 9 5 8 1059 -2 1176 -12
153 -19 213 -33 290 -3 19 -8 46 -9 60 -2 14 -8 45 -14 70 -13 52 -18 72 -25
101 -2 12 -9 38 -15 58 -15 48 -17 55 -19 63 -3 15 -69 164 -92 208 -115 225
-311 398 -554 490 -11 4 -33 13 -48 19 -41 16 -254 68 -307 75 -25 3 -61 8
-80 11 -98 13 -504 27 -515 17z"/>
<path d="M1095 9122 c-11 -2 -24 -8 -30 -12 -7 -6 -10 -1509 -9 -4477 l0
-4468 21 -1 c11 -1 25 -4 32 -8 6 -4 11 -3 11 2 0 6 14 7 35 2 19 -4 35 -4 35
0 0 4 15 4 33 1 17 -4 49 -4 69 -1 20 4 42 4 49 -1 7 -4 20 -4 29 1 9 5 22 5
30 0 8 -5 21 -5 30 0 9 5 22 5 30 0 7 -4 23 -4 36 0 12 5 24 7 27 4 7 -7 115
-9 122 -2 4 3 19 2 35 -2 16 -4 31 -6 34 -3 8 8 112 7 125 -1 5 -4 12 -2 15 3
4 6 18 6 36 1 17 -5 30 -5 30 0 0 5 13 5 30 0 18 -5 32 -5 36 1 3 5 10 7 15 3
13 -7 117 -9 125 -2 3 4 18 2 34 -2 16 -4 31 -6 34 -3 3 3 28 5 56 4 27 -1 57
-1 65 -1 37 0 47 0 88 -1 23 0 60 0 82 0 22 1 47 1 55 1 50 -2 297 16 335 24
11 2 45 7 75 12 30 4 57 8 60 9 3 1 32 7 65 15 33 8 62 14 65 15 3 1 22 5 43
9 20 5 40 12 43 17 3 5 12 9 21 9 25 0 182 70 253 113 176 107 308 259 407
467 28 59 80 200 88 239 2 9 13 54 24 101 11 47 22 103 25 125 4 22 8 51 11
65 8 48 17 146 21 235 2 50 4 90 4 90 9 0 12 1131 5 1500 -5 285 -11 375 -36
515 -18 108 -31 157 -62 245 -24 69 -88 193 -125 245 -46 62 -165 176 -230
219 -50 34 -201 113 -222 116 -28 5 -50 19 -51 33 -1 9 -2 26 -3 37 0 11 2 30
6 43 4 12 4 22 0 22 -6 0 -7 45 -3 93 1 4 5 7 11 7 18 0 162 70 207 100 24 17
48 30 52 30 18 0 200 188 233 240 78 127 141 289 164 430 2 14 7 36 10 50 3
14 8 41 10 60 3 19 7 51 9 70 10 70 16 199 20 400 7 355 7 459 0 470 -3 5 -3
10 2 10 7 0 8 44 3 190 0 19 -1 71 -1 115 1 157 -9 801 -13 840 -12 136 -38
296 -61 388 -3 9 -7 25 -9 35 -23 99 -112 297 -176 393 -62 90 -209 235 -266
261 -13 6 -24 14 -24 18 0 6 -138 78 -200 103 -95 38 -206 70 -320 91 -14 3
-34 7 -45 9 -11 3 -48 8 -82 12 -35 4 -75 9 -90 11 -16 2 -76 6 -136 9 -59 2
-112 7 -117 10 -6 3 -10 2 -10 -3 0 -5 -17 -7 -37 -3 -21 3 -60 4 -88 1 -27
-3 -60 -2 -72 2 -12 4 -25 3 -28 -2 -3 -5 -18 -5 -35 0 -17 5 -30 5 -30 0 0
-5 -13 -5 -30 0 -18 5 -32 5 -36 -1 -3 -5 -10 -7 -15 -3 -13 7 -117 9 -125 2
-3 -4 -18 -2 -34 2 -16 4 -31 6 -34 2 -7 -7 -106 -6 -113 1 -2 3 -18 1 -34 -3
-16 -5 -31 -5 -34 0 -3 5 -15 6 -29 0 -12 -4 -29 -4 -36 0 -8 5 -21 5 -31 0
-9 -5 -19 -7 -22 -4 -8 8 -106 9 -113 1 -3 -3 -18 -1 -34 3 -16 4 -31 6 -34 3
-8 -8 -112 -7 -125 1 -5 4 -12 2 -15 -3 -4 -6 -18 -6 -36 -1 -17 5 -30 5 -30
0 0 -5 -13 -5 -30 0 -18 5 -32 5 -36 -1 -3 -5 -10 -7 -15 -4 -11 8 -77 11
-104 7z m1565 -786 c331 -56 502 -246 545 -608 25 -210 25 -1711 0 -1903 -2
-16 -7 -55 -10 -85 -5 -47 -11 -77 -29 -155 -58 -245 -210 -417 -428 -484
-101 -30 -156 -34 -503 -35 l-320 -1 -1 1641 0 1641 350 -2 c193 -1 371 -5
396 -9z m-68 -4051 c18 -3 47 -8 63 -10 17 -3 41 -8 55 -12 14 -3 27 -7 30 -8
127 -31 266 -134 338 -250 52 -83 99 -224 117 -350 3 -23 7 -52 10 -65 3 -14
7 -78 10 -144 3 -65 7 -122 10 -126 3 -5 1 -11 -5 -15 -6 -4 -7 -11 -4 -17 11
-17 16 -291 15 -788 -2 -554 -4 -720 -11 -720 -3 0 -5 -42 -6 -93 -1 -167 -24
-285 -82 -417 -10 -25 -27 -51 -36 -59 -8 -7 -14 -17 -11 -21 8 -12 -94 -110
-158 -151 -34 -22 -91 -49 -127 -59 -134 -41 -192 -46 -545 -45 l-340 0 -1
1670 c0 919 1 1675 3 1680 4 11 617 11 675 0z"/>
</g>
</svg>
